# AST/ASF file generated using VICON BodyLanguage
# -----------------------------------------------
:version 1.10
:name VICON
:units
  mass 1.0
  length 0.45
  angle deg
:documentation
   .ast/.asf automatically generated from VICON data using
   VICON BodyBuilder and BodyLanguage model FoxedUp or BRILLIANT.MOD
:root
   order TX TY TZ RX RY RZ
   axis XYZ
   position 0 0 0  
   orientation 0 0 0 
:bonedata
  begin
     id 1 
     name lhipjoint
     direction 0.682418 -0.694059 0.22932 
     length 2.25561 
     axis 0 0 0  XYZ
  end
  begin
     id 2 
     name lfemur
     direction 0.34202 -0.939693 0  
     length 6.96448  
     axis 0 0 20  XYZ
    dof rx ry rz
    limits (-160.0 20.0)
           (-70.0 70.0)
           (-60.0 70.0)
  end
  begin
     id 3 
     name ltibia
     direction 0.34202 -0.939693 0   
     length 6.88553   
     axis 0 0 20   XYZ
    dof rx
    limits (-10.0 170.0)
  end
  begin
     id 4 
     name lfoot
     direction 0.0723587 -0.198804 0.977364   
     length 1.88518   
     axis -90 7.62852e-016 20   XYZ
    dof rx rz
    limits (-45.0 90.0)
           (-70.0 20.0)
  end
  begin
     id 5 
     name ltoes
     direction 1.53558e-011 -4.21962e-011 1   
     length 0.952124   
     axis -90 7.62852e-016 20   XYZ
    dof rx
    limits (-90.0 20.0)
  end
  begin
     id 6 
     name rhipjoint
     direction -0.657603 -0.71533 0.236348   
     length 2.18854  
     axis 0 0 0  XYZ 
  end
  begin
     id 7 
     name rfemur
     direction -0.34202 -0.939693 0   
     length 6.86686   
     axis 0 0 -20   XYZ
    dof rx ry rz
    limits (-160.0 20.0)
           (-70.0 70.0)
           (-70.0 60.0)
  end
  begin
     id 8 
     name rtibia
     direction -0.34202 -0.939693 0   
     length 6.59503   
     axis 0 0 -20   XYZ
    dof rx
    limits (-10.0 170.0)
 end
 begin
     id 9 
     name rfoot
     direction -0.101977 -0.280179 0.954516   
     length 1.93723  
     axis -90 -7.62852e-016 -20   XYZ
    dof rx rz
    limits (-45.0 90.0)
           (-20.0 70.0)
  end
  begin
     id 10 
     name rtoes
     direction -1.53564e-011 -4.21897e-011 1   
     length 0.970315   
     axis -90 -7.62852e-016 -20   XYZ
    dof rx
    limits (-90.0 20.0)
  end
  begin
     id 11 
     name lowerback
     direction -0.0339559 0.999421 -0.00235966   
     length 1.88543   
     axis 0 0 0   XYZ
    dof rx ry rz
    limits (-20.0 45.0)
           (-30.0 30.0)
           (-30.0 30.0)
  end
  begin
     id 12 
     name upperback
     direction 0.00401003 0.999739 0.0224689   
     length 1.8856   
     axis 0 0 0   XYZ
    dof rx ry rz
    limits (-20.0 45.0)
           (-30.0 30.0)
           (-30.0 30.0)
  end
  begin
     id 13 
     name thorax
     direction 0.0198619 0.999546 0.0226536   
     length 1.88352   
     axis 0 0 0   XYZ
    dof rx ry rz
    limits (-20.0 45.0)
           (-30.0 30.0)
           (-30.0 30.0)
  end
  begin
     id 14 
     name lowerneck
     direction -0.0461848 0.998632 0.0245198   
     length 1.34895   
     axis 0 0 0   XYZ
    dof rx ry rz
    limits (-20.0 45.0)
           (-30.0 30.0)
           (-30.0 30.0)
  end
  begin
     id 15 
     name upperneck
     direction -0.0180627 0.994724 -0.100984   
     length 1.35214   
     axis 0 0 0   XYZ
    dof rx ry rz
    limits (-20.0 45.0)
           (-30.0 30.0)
           (-30.0 30.0)
  end
  begin
     id 16
     name head
     direction -0.00374772 0.999293 -0.037403  
     length 1.3568  
     axis 0 0 0   XYZ
    dof rx ry rz
    limits (-20.0 45.0)
           (-30.0 30.0)
           (-30.0 30.0)
  end
  begin
     id 17 
     name lclavicle
     direction 0.971773 0.191119 0.138311  
     length 2.84954  
     axis 0 0 0   XYZ
    dof ry rz
    limits (-20.0 10.0)
           (0.0 20.0)
  end
  begin
     id 18 
     name lhumerus
     direction 1 -4.4897e-011 -2.43761e-027   
     length 4.40919   
     axis 180 -30 -90   XYZ
    dof rx ry rz
    limits (-60.0 90.0)
           (-90.0 90.0)
           (-90.0 90.0)
  end
  begin
     id 19
     name lradius
     direction 1 -4.4896e-011 -9.1621e-027   
     length 3.03857   
     axis 180 -30 -90   XYZ
    dof rx
    limits (-10.0 170.0)
  end
  begin
     id 20
     name lwrist
     direction 1 -4.4896e-011 -1.41363e-026   
     length 1.51928   
     axis 1.07133e-014 90 90   XYZ
    dof ry
    limits (-180.0 0.0)
 end
  begin
     id 21 
     name lhand
     direction 1 -4.48978e-011 -2.82725e-026   
     length 0.523208   
     axis 1.80403e-014 90 90   XYZ
    dof rx rz
    limits (-90.0 90.0)
           (-45.0 45.0)
  end
  begin
     id 22 
     name lfingers
     direction 1 -4.48977e-011 -5.6545e-026   
     length 0.421824   
     axis 3.60806e-014 90 90   XYZ
    dof rx
    limits (0.0 90.0)
  end
  begin
     id 23
     name lthumb
     direction 0.707107 -6.34962e-011 0.707107   
     length 0.605657   
     axis -90 45 2.85299e-015   XYZ
    dof rx rz
    limits (-45.0 45.0)
           (-45.0 45.0)
  end
  begin
     id 24 
     name rclavicle
     direction -0.957247 0.24311 0.156766   
     length 3.12406  
     axis 0 0 0   XYZ 
    dof ry rz
    limits (-10.0 20.0)
           (-20.0 0.0)
  end
  begin
     id 25 
     name rhumerus
     direction -1 -4.48964e-011 -1.70632e-027  
     length 4.61969   
     axis 180 30 90   XYZ
    dof rx ry rz
    limits (-90.0 60.0)
           (-90.0 90.0)
           (-90.0 90.0)
  end
  begin
     id 26 
     name rradius
     direction -1 -4.48966e-011 -6.60395e-027   
     length 3.09382   
     axis 180 30 90   XYZ
    dof rx
    limits (-10.0 170.0)
  end
  begin
     id 27 
     name rwrist
     direction -1 -4.48963e-011 -1.41363e-026   
     length 1.54691   
     axis 1.07133e-014 -90 -90   XYZ
    dof ry
    limits (-180.0 0.0)
  end
  begin
     id 28
     name rhand
     direction -1 -4.49013e-011 -2.82725e-026   
     length 0.500896   
     axis 1.80403e-014 -90 -90   XYZ
    dof rx rz
    limits (-90.0 90.0)
           (-45.0 45.0)
  end
  begin
     id 29
     name rfingers
     direction -1 -4.48902e-011 -5.6545e-026   
     length 0.403835   
     axis 3.60806e-014 -90 -90   XYZ
    dof rx
    limits (0.0 90.0)
  end
  begin
     id 30
     name rthumb
     direction -0.707107 -6.34953e-011 0.707107   
     length 0.579829   
     axis -90 -45 -2.85299e-015   XYZ
    dof rx rz
    limits (-45.0 45.0)
           (-45.0 45.0)
  end
:hierarchy
  begin
    root lhipjoint rhipjoint lowerback
    lhipjoint lfemur
    lfemur ltibia
    ltibia lfoot
    lfoot ltoes
    rhipjoint rfemur
    rfemur rtibia
    rtibia rfoot
    rfoot rtoes
    lowerback upperback
    upperback thorax
    thorax lowerneck lclavicle rclavicle
    lowerneck upperneck
    upperneck head
    lclavicle lhumerus
    lhumerus lradius
    lradius lwrist
    lwrist lhand lthumb
    lhand lfingers
    rclavicle rhumerus
    rhumerus rradius
    rradius rwrist
    rwrist rhand rthumb
    rhand rfingers
  end

#!OML:ASF E:\madness\Project 1\Capture day 1\Session 1\Female1.ASF
:FULLY-SPECIFIED
:DEGREES
596
root 2.68916 16.2503 -0.0879738 -169.248 -66.1336 175.538
lowerback -5.93077 -1.87703 -2.11335
upperback -5.01484 -2.59426 1.8178
thorax -1.67503 -1.29804 2.94352
lowerneck 8.43809 4.02858 3.01704
upperneck -4.30375 5.06169 -9.03126
head -2.57691 2.74829 -3.78478
rclavicle -3.88127e-014 -4.77083e-015
rhumerus -47.298 -4.9974 -80.9969
rradius 35.8868
rwrist 4.91171
rhand -15.7916 -45.3936
rfingers 7.12502
rthumb 10.4012 -75.1164
lclavicle -3.88127e-014 -4.77083e-015
lhumerus -56.7102 12.9919 74.0705
lradius 54.3638
lwrist -7.53017
lhand -28.1512 -13.4602
lfingers 7.12502
lthumb -1.53196 16.514
rfemur -16.0679 24.6284 10.1755
rtibia 19.633
rfoot -11.9614 -1.7276
rtoes 0.0692717
lfemur -6.26704 -12.3071 -24.326
ltibia 19.8987
lfoot -19.3272 39.0534
ltoes 31.5613
597
root 2.69613 16.2526 -0.0850893 -169.191 -66.049 175.453
lowerback -5.91518 -1.87973 -2.20195
upperback -4.98014 -2.59234 1.83224
thorax -1.64378 -1.29446 3.00789
lowerneck 8.22598 4.01388 3.03502
upperneck -3.66405 5.07904 -9.05859
head -2.31936 2.74167 -3.76683
rclavicle 5.77469e-014 -1.03368e-014
rhumerus -47.401 -4.96048 -80.9328
rradius 36.0146
rwrist 4.9618
rhand -15.4235 -45.6032
rfingers 7.12502
rthumb 10.7563 -75.3078
lclavicle 5.77469e-014 -1.03368e-014
lhumerus -56.5826 13.0671 74.0448
lradius 54.3049
lwrist -7.57803
lhand -28.0961 -13.4491
lfingers 7.12502
lthumb -1.47873 16.5255
rfemur -16.1079 24.5339 10.1264
rtibia 19.6336
rfoot -11.9054 -1.57708
rtoes 0.274643
lfemur -6.28523 -12.2771 -24.376
ltibia 19.9129
lfoot -19.4756 39.0068
ltoes 31.9366
598
root 2.70249 16.2533 -0.0847467 -169.092 -65.9124 175.318
lowerback -5.89376 -1.86351 -2.33766
upperback -4.97161 -2.56489 1.84445
thorax -1.64308 -1.27676 3.09866
lowerneck 8.19146 3.98371 2.84939
upperneck -3.21129 5.05745 -8.84408
head -2.17089 2.71861 -3.63922
rclavicle 2.56432e-014 1.03368e-014
rhumerus -47.5544 -4.87659 -80.9064
rradius 36.1408
rwrist 4.8363
rhand -15.4971 -45.4755
rfingers 7.12502
rthumb 10.6853 -75.1838
lclavicle 2.56432e-014 1.03368e-014
lhumerus -56.4907 13.0085 74.0732
lradius 54.2145
lwrist -7.57086
lhand -28.0262 -13.2662
lfingers 7.12502
lthumb -1.41124 16.7089
rfemur -16.1217 24.5313 10.0498
rtibia 19.612
rfoot -11.9171 -1.46886
rtoes 0.347331
lfemur -6.30039 -12.2278 -24.4461
ltibia 19.9321
lfoot -19.5667 39.0386
ltoes 32.3469
599
root 2.70643 16.2537 -0.0842452 -169.063 -65.8006 175.315
lowerback -5.62304 -1.9047 -2.51566
upperback -5.23196 -2.63054 1.96617
thorax -2.04748 -1.29839 3.3391
lowerneck 8.50652 3.98587 2.59793
upperneck -2.79489 5.06476 -8.63347
head -2.09931 2.71658 -3.51775
rclavicle 1.12313e-014 8.74653e-015
rhumerus -48.0189 -4.50801 -80.8459
rradius 36.1819
rwrist 4.58572
rhand -15.8431 -45.1977
rfingers 7.12502
rthumb 10.3515 -74.9229
lclavicle 1.12313e-014 8.74653e-015
lhumerus -56.9734 13.0854 73.997
lradius 54.2439
lwrist -7.61349
lhand -27.8751 -13.2226
lfingers 7.12502
lthumb -1.26533 16.7534
rfemur -16.19 24.606 10.0045
rtibia 19.6003
rfoot -11.8845 -1.42511
rtoes 0.24094
lfemur -6.34833 -12.2001 -24.4511
ltibia 19.9432
lfoot -19.615 39.0926
ltoes 32.5073
600
root 2.71263 16.2546 -0.0818008 -168.997 -65.7481 175.311
lowerback -5.89062 -1.85162 -2.42743
upperback -5.08906 -2.55277 1.85928
thorax -1.76384 -1.26775 3.1684
lowerneck 8.51978 3.85421 2.58862
upperneck -2.57711 4.9082 -8.49736
head -2.04219 2.63177 -3.45716
rclavicle 1.05356e-014 -1.59028e-015
rhumerus -47.8953 -4.78633 -80.8757
rradius 36.1451
rwrist 4.50257
rhand -16.0762 -45.092
rfingers 7.12502
rthumb 10.1266 -74.8283
lclavicle 1.05356e-014 -1.59028e-015
lhumerus -56.6312 12.9328 73.9839
lradius 54.2312
lwrist -7.58158
lhand -27.9596 -13.1217
lfingers 7.12502
lthumb -1.34687 16.8538
rfemur -16.3106 24.626 9.94555
rtibia 19.5832
rfoot -11.8502 -1.37565
rtoes 0.344168
lfemur -6.44832 -12.0035 -24.4404
ltibia 19.9589
lfoot -19.3908 39.0191
ltoes 31.7612
601
root 2.72058 16.2544 -0.0791552 -169.106 -65.7405 175.406
lowerback -5.80356 -1.85675 -2.40961
upperback -5.11614 -2.56265 1.88991
thorax -1.83896 -1.27151 3.19357
lowerneck 8.5097 3.776 2.50128
upperneck -2.10953 4.8143 -8.51338
head -1.89272 2.57477 -3.42839
rclavicle -6.95746e-016 -3.97569e-015
rhumerus -48.0114 -4.66336 -80.8352
rradius 36.1377
rwrist 4.38673
rhand -16.0186 -45.226
rfingers 7.12502
rthumb 10.1822 -74.9596
lclavicle -6.95746e-016 -3.97569e-015
lhumerus -56.6816 12.8575 74.0288
lradius 54.2864
lwrist -7.47587
lhand -28.3467 -13.0902
lfingers 7.12502
lthumb -1.72071 16.8827
rfemur -16.318 24.6248 9.98267
rtibia 19.5479
rfoot -11.8242 -1.31733
rtoes 0.576279
lfemur -6.47512 -11.8608 -24.3938
ltibia 19.9878
lfoot -19.1489 38.9327
ltoes 31.271
602
root 2.72773 16.2564 -0.0759417 -169.226 -65.746 175.496
lowerback -5.6817 -1.85638 -2.38747
upperback -5.16391 -2.56671 1.92947
thorax -1.95516 -1.27175 3.22776
lowerneck 8.46457 3.70323 2.26884
upperneck -1.59863 4.7205 -8.39704
head -1.72829 2.51337 -3.32504
rclavicle -3.29983e-014 -5.56597e-015
rhumerus -48.1166 -4.61814 -80.6965
rradius 36.0633
rwrist 4.44588
rhand -15.9806 -44.9422
rfingers 7.12502
rthumb 10.2189 -74.674
lclavicle -3.29983e-014 -5.56597e-015
lhumerus -56.7929 12.7866 74.0688
lradius 54.3046
lwrist -7.43931
lhand -28.5179 -13.202
lfingers 7.12502
lthumb -1.8861 16.7694
rfemur -16.3007 24.6287 10.0311
rtibia 19.5242
rfoot -11.7513 -1.28669
rtoes 0.185626
lfemur -6.4759 -11.8999 -24.3488
ltibia 20.0048
lfoot -19.3969 38.8609
ltoes 31.8076
603
root 2.7346 16.2575 -0.0725049 -169.118 -65.6728 175.396
lowerback -5.71579 -1.81871 -2.42791
upperback -5.1692 -2.51518 1.91645
thorax -1.94459 -1.24537 3.23825
lowerneck 8.36565 3.6255 2.08479
upperneck -0.982016 4.63398 -8.22954
head -1.51963 2.45038 -3.20997
rclavicle 3.45885e-014 -7.15625e-015
rhumerus -48.1165 -4.7644 -80.524
rradius 35.9255
rwrist 4.65886
rhand -15.6288 -45.127
rfingers 7.12502
rthumb 10.5582 -74.8418
lclavicle 3.45885e-014 -7.15625e-015
lhumerus -56.834 12.7019 74.0954
lradius 54.388
lwrist -7.46549
lhand -28.3631 -13.2793
lfingers 7.12502
lthumb -1.7366 16.6934
rfemur -16.3735 24.7077 9.93665
rtibia 19.5062
rfoot -11.6603 -1.32898
rtoes -0.337719
lfemur -6.5239 -11.9144 -24.4001
ltibia 20.0155
lfoot -19.6863 38.8666
ltoes 32.3336
604
root 2.73958 16.2562 -0.0702676 -169 -65.5192 175.294
lowerback -5.86082 -1.76974 -2.46766
upperback -5.08983 -2.44284 1.88677
thorax -1.78667 -1.21086 3.2259
lowerneck 8.04398 3.50864 2.23206
upperneck -0.182896 4.52452 -8.42354
head -1.20181 2.37144 -3.2697
rclavicle -4.46272e-014 3.97569e-015
rhumerus -47.9768 -4.9303 -80.4498
rradius 35.8216
rwrist 4.81198
rhand -15.5239 -45.7193
rfingers 7.12502
rthumb 10.6594 -75.4289
lclavicle -4.46272e-014 3.97569e-015
lhumerus -56.7486 12.7275 74.0792
lradius 54.4946
lwrist -7.49434
lhand -28.0526 -13.2973
lfingers 7.12502
lthumb -1.43671 16.6776
rfemur -16.4649 24.8418 9.81673
rtibia 19.4847
rfoot -11.6315 -1.36041
rtoes -0.388695
lfemur -6.57069 -11.9047 -24.4741
ltibia 20.0315
lfoot -19.8598 38.9578
ltoes 32.6523
